# xmcd
#
# Track frame offsets: 
#        150
#        21637
#        45720
#        67677
#        82400
#        109782
#        132247
#        150607
#        165842
#        192025
#        205962
#        228870
#
# Disc length: 3452 seconds
#
# Revision: 3
# Processed by: cddbd v1.5.2PL0 Copyright (c) Steve Scherf et al.
# Submitted via: ExactAudioCopy v1.0b3
#
DISCID=980d7a0c
DTITLE=Bob Dylan - Love And Theft
DYEAR=2001
DGENRE=
TTITLE0=Bob Dylan - Tweedle Dee and Tweedle Dum
TTITLE1=Bob Dylan - Mississippi
TTITLE2=Bob Dylan - Summer Days
TTITLE3=Bob Dylan - Bye And Bye
TTITLE4=Bob Dylan - Lonesome Day Blues
TTITLE5=Bob Dylan - Floater (Too Much To Ask)
TTITLE6=Bob Dylan - High Water
TTITLE7=Bob Dylan - Moonlight
TTITLE8=Bob Dylan - Honest With Me
TTITLE9=Bob Dylan - Po' Boy
TTITLE10=Bob Dylan - Cry A While
TTITLE11=Bob Dylan - Sugar Baby
EXTD=
EXTT0=
EXTT1=
EXTT2=
EXTT3=
EXTT4=
EXTT5=
EXTT6=
EXTT7=
EXTT8=
EXTT9=
EXTT10=
EXTT11=
PLAYORDER=
